<svg width="158" height="28" viewBox="0 0 163 31" fill="none" xmlns="http://www.w3.org/2000/svg">
<path d="M24.6457 19.956C24.6474 20.7373 24.3183 21.4873 23.7307 22.0415C23.143 22.5956 22.3448 22.9086 21.5112 22.9118C21.3386 22.9079 21.1746 22.8407 21.0544 22.7246C20.9341 22.6085 20.8673 22.4529 20.8682 22.2911V9.29567C20.8673 9.13391 20.9341 8.97827 21.0544 8.86221C21.1746 8.74614 21.3386 8.67892 21.5112 8.67497H23.9866C24.1592 8.67892 24.3232 8.74614 24.4434 8.86221C24.5636 8.97827 24.6305 9.13391 24.6296 9.29567V19.956H24.6457ZM17.6661 22.9118H15.1907C15.1046 22.9119 15.0194 22.8957 14.9401 22.8643C14.8608 22.8329 14.789 22.7869 14.7291 22.729C14.6691 22.6711 14.6221 22.6025 14.591 22.5273C14.5598 22.4521 14.5451 22.3718 14.5477 22.2911V12.8571C14.5451 12.7765 14.5598 12.6962 14.591 12.621C14.6221 12.5458 14.6691 12.4772 14.7291 12.4193C14.789 12.3614 14.8608 12.3154 14.9401 12.284C15.0194 12.2526 15.1046 12.2364 15.1907 12.2364H17.6661C17.8387 12.2404 18.0027 12.3076 18.1229 12.4237C18.2432 12.5397 18.31 12.6954 18.3091 12.8571V22.3092C18.31 22.471 18.2432 22.6266 18.1229 22.7427C18.0027 22.8587 17.8387 22.926 17.6661 22.9299V22.9118ZM11.3489 22.9118H8.87662C8.79053 22.9119 8.70532 22.8957 8.62602 22.8643C8.54673 22.8329 8.47497 22.7869 8.415 22.729C8.35504 22.6711 8.30809 22.6025 8.27693 22.5273C8.24578 22.4521 8.23106 22.3718 8.23364 22.2911V11.0885C8.23272 10.9264 8.29947 10.7704 8.41962 10.6539C8.53976 10.5374 8.70378 10.4695 8.87662 10.4647H11.3553C11.5281 10.4695 11.6922 10.5374 11.8123 10.6539C11.9324 10.7704 11.9992 10.9264 11.9983 11.0885V22.3092C12.0009 22.3899 11.9861 22.4702 11.955 22.5454C11.9238 22.6206 11.8769 22.6892 11.8169 22.7471C11.7569 22.805 11.6852 22.851 11.6059 22.8824C11.5266 22.9138 11.4414 22.9299 11.3553 22.9299L11.3489 22.9118ZM20.8521 0.91626H12.0047C10.4219 0.922183 8.8559 1.22023 7.39602 1.79339C5.93614 2.36656 4.61102 3.2036 3.4963 4.25674C2.38158 5.30988 1.49911 6.55848 0.899262 7.93126C0.299415 9.30404 -0.00605605 10.7741 0.000289427 12.2575V30.0529C-0.00229314 30.1335 0.0124293 30.2138 0.0435837 30.289C0.0747382 30.3642 0.12169 30.4328 0.181656 30.4907C0.241621 30.5486 0.313378 30.5946 0.392673 30.626C0.471967 30.6574 0.557183 30.6736 0.643268 30.6736H20.8521C22.4352 30.668 24.0015 30.3703 25.4618 29.7973C26.922 29.2243 28.2475 28.3873 29.3626 27.3341C30.4776 26.281 31.3604 25.0322 31.9605 23.6593C32.5605 22.2863 32.8661 20.816 32.8597 19.3323V12.2575C32.8661 10.7739 32.5605 9.30354 31.9605 7.93057C31.3604 6.55759 30.4776 5.30885 29.3626 4.25568C28.2475 3.2025 26.922 2.36552 25.4618 1.79253C24.0015 1.21955 22.4352 0.921788 20.8521 0.91626V0.91626Z" fill="white"/>
<path d="M59.8498 10.4497H57.0046C56.8336 10.4312 56.6615 10.475 56.5239 10.572C56.3863 10.669 56.2937 10.8118 56.2652 10.971L54.3362 17.7655L52.0858 10.971C52.0502 10.8169 51.9571 10.6799 51.8234 10.5844C51.6896 10.4888 51.5239 10.4411 51.356 10.4497H49.2921C49.1243 10.4417 48.959 10.4897 48.8254 10.5851C48.6918 10.6805 48.5986 10.8172 48.5623 10.971L46.3119 17.7655L44.3829 10.971C44.3544 10.8118 44.2618 10.669 44.1242 10.572C43.9866 10.475 43.8146 10.4312 43.6435 10.4497H40.7983C40.7043 10.4396 40.6092 10.4537 40.5231 10.4905C40.437 10.5272 40.3632 10.5853 40.3097 10.6584C40.2561 10.7315 40.2249 10.8169 40.2192 10.9054C40.2135 10.9939 40.2337 11.0822 40.2775 11.1608L44.0711 22.3845C44.1135 22.5418 44.2131 22.6802 44.3528 22.776C44.4925 22.8717 44.6635 22.9187 44.8362 22.9088H47.3664C47.5391 22.9187 47.7101 22.8717 47.8498 22.776C47.9895 22.6802 48.0891 22.5418 48.1315 22.3845L50.3498 15.8311L52.5616 22.3695C52.6028 22.5268 52.7017 22.6655 52.841 22.7614C52.9803 22.8572 53.1511 22.9041 53.3236 22.8938H55.8537C56.0264 22.9036 56.1974 22.8566 56.3371 22.7609C56.4768 22.6652 56.5764 22.5267 56.6188 22.3695L60.4028 11.1608C60.5346 10.7359 60.3256 10.4648 59.8498 10.4648V10.4497Z" fill="white"/>
<path d="M73.9471 10.4466H71.3141C71.2247 10.438 71.1344 10.4482 71.0498 10.4766C70.9652 10.505 70.8885 10.5508 70.8253 10.6106C70.762 10.6704 70.7139 10.7428 70.6845 10.8223C70.655 10.9019 70.645 10.9866 70.655 11.0703V11.6247C69.5849 10.6549 68.1572 10.1088 66.6686 10.1001C63.2318 10.1001 60.4478 13.0409 60.4478 16.6656C60.4478 20.2904 63.2318 23.2312 66.6686 23.2312C68.1572 23.2224 69.5849 22.6764 70.655 21.7065V22.2609C70.645 22.3446 70.655 22.4293 70.6845 22.5089C70.7139 22.5885 70.762 22.6608 70.8253 22.7207C70.8885 22.7805 70.9652 22.8263 71.0498 22.8547C71.1344 22.883 71.2247 22.8933 71.3141 22.8846H73.9471C74.0352 22.8909 74.1237 22.8789 74.2063 22.8494C74.2888 22.82 74.3635 22.7739 74.4249 22.7143C74.4863 22.6548 74.5329 22.5833 74.5614 22.5049C74.59 22.4265 74.5998 22.3432 74.5901 22.2609V11.0703C74.5998 10.988 74.59 10.9047 74.5614 10.8263C74.5329 10.748 74.4863 10.6765 74.4249 10.6169C74.3635 10.5574 74.2888 10.5112 74.2063 10.4818C74.1237 10.4524 74.0352 10.4403 73.9471 10.4466ZM67.498 19.736C66.8447 19.7588 66.1989 19.5981 65.6438 19.2744C65.0886 18.9507 64.6494 18.4789 64.3824 17.9196C64.1155 17.3602 64.033 16.7388 64.1457 16.1352C64.2584 15.5316 64.561 14.9733 65.0146 14.5321C65.4683 14.0909 66.0524 13.7868 66.6918 13.659C67.3312 13.5312 67.9968 13.5854 68.6031 13.8148C69.2094 14.0441 69.7287 14.438 70.0943 14.946C70.46 15.454 70.6552 16.0529 70.655 16.6656C70.6631 17.0616 70.5879 17.4551 70.4335 17.8238C70.2792 18.1925 70.0489 18.529 69.7556 18.8142C69.4624 19.0993 69.1121 19.3275 68.7247 19.4857C68.3374 19.6439 67.9205 19.7289 67.498 19.736Z" fill="white"/>
<path d="M120.219 15.0024V22.27C120.229 22.3537 120.219 22.4384 120.19 22.5179C120.16 22.5975 120.112 22.6699 120.049 22.7297C119.986 22.7895 119.909 22.8353 119.824 22.8637C119.74 22.8921 119.649 22.9023 119.56 22.8937H116.924C116.836 22.8999 116.747 22.8879 116.665 22.8585C116.582 22.829 116.507 22.7829 116.446 22.7234C116.385 22.6638 116.338 22.5923 116.309 22.5139C116.281 22.4356 116.271 22.3523 116.281 22.27V15.3399C116.281 14.0924 115.516 13.5471 114.513 13.5471C113.33 13.5471 112.584 14.1678 112.584 15.6382V22.27C112.594 22.3537 112.584 22.4384 112.554 22.5179C112.525 22.5975 112.477 22.6699 112.413 22.7297C112.35 22.7895 112.273 22.8353 112.189 22.8637C112.104 22.8921 112.014 22.9023 111.925 22.8937H109.288C109.199 22.9023 109.109 22.8921 109.024 22.8637C108.94 22.8353 108.863 22.7895 108.8 22.7297C108.736 22.6699 108.688 22.5975 108.659 22.5179C108.629 22.4384 108.619 22.3537 108.629 22.27V11.0703C108.619 10.9868 108.629 10.9021 108.659 10.8227C108.688 10.7432 108.736 10.671 108.8 10.6114C108.863 10.5518 108.94 10.5063 109.024 10.4783C109.109 10.4503 109.199 10.4405 109.288 10.4496H111.925C112.014 10.4405 112.104 10.4503 112.189 10.4783C112.273 10.5063 112.35 10.5518 112.413 10.6114C112.477 10.671 112.525 10.7432 112.554 10.8227C112.584 10.9021 112.594 10.9868 112.584 11.0703V11.5856C113.204 10.7208 114.326 10.1001 116.011 10.1001C118.461 10.1001 120.225 11.908 120.225 15.0024H120.219Z" fill="white"/>
<path d="M100.637 10.1001C96.4739 10.1001 93.5645 12.9625 93.5645 16.6686C93.5645 20.3747 96.355 23.2402 100.73 23.2402C103.418 23.2402 105.579 22.1193 106.607 19.9559C106.819 19.5582 106.556 19.284 106.08 19.284H103.55C103.252 19.2922 102.968 19.4039 102.753 19.5974C102.197 20.0047 101.51 20.2244 100.804 20.2211C99.4284 20.2211 98.2003 19.6335 97.7213 18.1541H106.514C106.602 18.1633 106.69 18.1555 106.774 18.1312C106.859 18.1069 106.937 18.0667 107.003 18.013C107.07 17.9594 107.125 17.8934 107.163 17.8191C107.202 17.7449 107.224 17.6641 107.228 17.5816C107.253 17.2803 107.279 16.979 107.279 16.6596C107.279 12.9113 104.485 10.1001 100.637 10.1001ZM97.6988 15.3278C98.1039 14.0864 99.1294 13.4085 100.611 13.4085C101.775 13.4085 102.936 13.9086 103.344 15.3278H97.6988Z" fill="white"/>
<path d="M92.1011 10.2565C92.5479 10.1842 92.7858 10.4554 92.7858 10.8592V13.7819C92.7858 14.1796 92.6026 14.3845 92.2586 14.3845C90.783 14.3363 89.3652 15.0323 89.3652 17.024V22.2698C89.375 22.3519 89.3652 22.4351 89.3367 22.5134C89.3081 22.5916 89.2614 22.6629 89.1999 22.7223C89.1385 22.7816 89.0638 22.8274 88.9812 22.8565C88.8986 22.8856 88.8102 22.8972 88.7222 22.8905H86.0667C85.9775 22.8996 85.8873 22.8898 85.8026 22.8618C85.718 22.8338 85.6412 22.7883 85.5779 22.7287C85.5146 22.669 85.4665 22.5968 85.437 22.5174C85.4075 22.438 85.3975 22.3533 85.4077 22.2698V11.0701C85.3976 10.9864 85.4076 10.9017 85.4371 10.8221C85.4666 10.7426 85.5147 10.6702 85.5779 10.6104C85.6411 10.5505 85.7179 10.5047 85.8024 10.4764C85.887 10.448 85.9773 10.4377 86.0667 10.4464H88.6997C88.7878 10.4401 88.8763 10.4521 88.9589 10.4816C89.0415 10.511 89.1161 10.5572 89.1775 10.6167C89.2389 10.6763 89.2855 10.7478 89.3141 10.8261C89.3426 10.9045 89.3524 10.9878 89.3427 11.0701V12.4139C89.5211 11.8378 89.8789 11.3248 90.3703 10.9404C90.8618 10.5561 91.4644 10.318 92.1011 10.2565Z" fill="white"/>
<path d="M83.0091 10.2565C83.4592 10.1842 83.6939 10.4554 83.6939 10.8592V13.7819C83.6939 14.1796 83.5106 14.3845 83.1699 14.3845C81.691 14.3363 80.2765 15.0323 80.2765 17.024V22.2697C80.2862 22.3519 80.2765 22.4351 80.2479 22.5134C80.2193 22.5916 80.1727 22.6629 80.1112 22.7223C80.0497 22.7816 79.975 22.8274 79.8924 22.8565C79.8098 22.8856 79.7214 22.8972 79.6335 22.8904H76.9973C76.9093 22.8972 76.8209 22.8856 76.7383 22.8565C76.6557 22.8274 76.581 22.7816 76.5195 22.7223C76.4581 22.6629 76.4114 22.5916 76.3828 22.5134C76.3542 22.4351 76.3445 22.3519 76.3543 22.2697V11.0701C76.3446 10.9878 76.3543 10.9045 76.3829 10.8261C76.4114 10.7478 76.4581 10.6763 76.5195 10.6167C76.5809 10.5572 76.6555 10.511 76.7381 10.4816C76.8207 10.4521 76.9092 10.4401 76.9973 10.4464H79.6045C79.6926 10.4401 79.7811 10.4521 79.8637 10.4816C79.9463 10.511 80.0209 10.5572 80.0823 10.6167C80.1437 10.6763 80.1903 10.7478 80.2189 10.8261C80.2474 10.9045 80.2572 10.9878 80.2475 11.0701V12.4139C80.4261 11.8374 80.7844 11.324 81.2765 10.9396C81.7685 10.5552 82.3719 10.3174 83.0091 10.2565Z" fill="white"/>
<path d="M127.623 4.91797H133.072C135.429 4.91797 137.196 5.42015 138.373 6.42452C139.55 7.42888 140.138 8.79783 140.138 10.5314C140.166 11.5732 139.902 12.6038 139.373 13.5204C138.832 14.3929 138.012 15.0842 137.029 15.4969C135.783 16.0066 134.431 16.2485 133.072 16.205H129.622V14.0055H133.319C134.704 14.0055 135.744 13.7142 136.441 13.1317C137.138 12.5491 137.482 11.6914 137.473 10.5585C137.473 9.4135 137.126 8.55377 136.431 7.97927C135.737 7.40478 134.696 7.11853 133.31 7.12054H129.294L130.169 6.21661V22.8881H127.623V4.91797Z" fill="white"/>
<path d="M142.029 10.0518H144.44V12.7214C144.635 12.1807 144.931 11.6767 145.314 11.233C145.676 10.8274 146.129 10.5031 146.642 10.2839C147.227 10.0511 147.859 9.93906 148.494 9.95542H149.066V12.164H148.301C147.442 12.1276 146.595 12.3574 145.89 12.8179C145.234 13.3019 144.748 13.9589 144.495 14.7041V22.8876H142.029V10.0518Z" fill="white"/>
<path d="M152.738 22.3337C151.736 21.7821 150.92 20.9783 150.381 20.0136C149.778 18.9197 149.477 17.7013 149.507 16.4702C149.477 15.239 149.777 14.0205 150.381 12.9268C150.921 11.9619 151.737 11.1573 152.738 10.6037C153.727 10.0642 154.853 9.78525 155.998 9.79621C157.128 9.78807 158.239 10.0671 159.213 10.6037C160.217 11.1586 161.038 11.9625 161.585 12.9268C162.2 14.0172 162.507 15.2371 162.476 16.4702C162.503 17.6981 162.197 18.9124 161.585 19.9985C161.179 20.7046 160.626 21.327 159.958 21.8286C159.29 22.3303 158.521 22.7011 157.697 22.9189C156.874 23.1367 156.011 23.1971 155.162 23.0966C154.313 22.9961 153.494 22.7366 152.754 22.3337H152.738ZM158.023 20.5258C158.647 20.1251 159.133 19.5629 159.422 18.9078C159.764 18.136 159.932 17.3059 159.914 16.4702C159.934 15.6294 159.766 14.794 159.422 14.0175C159.13 13.3681 158.644 12.8115 158.023 12.4146C157.408 12.0448 156.693 11.8483 155.962 11.8483C155.232 11.8483 154.517 12.0448 153.902 12.4146C153.287 12.8142 152.807 13.3704 152.519 14.0175C152.175 14.794 152.007 15.6294 152.027 16.4702C152.009 17.3059 152.177 18.136 152.519 18.9078C152.804 19.5606 153.284 20.1224 153.902 20.5258C154.517 20.8938 155.232 21.0893 155.962 21.0893C156.693 21.0893 157.408 20.8938 158.023 20.5258Z" fill="white"/>
</svg>
